<?xml version="1.0" standalone="no"?><!DOCTYPE svg PUBLIC "-//W3C//DTD SVG 1.1//EN" "http://www.w3.org/Graphics/SVG/1.1/DTD/svg11.dtd"><svg t="1755594967460" class="icon" viewBox="0 0 1024 1024" version="1.1" xmlns="http://www.w3.org/2000/svg" p-id="959" xmlns:xlink="http://www.w3.org/1999/xlink" width="200" height="200"><path d="M96 265.6h544v704H96c-52.8 0-96-43.2-96-96v-512c0-52.8 43.2-94.4 96-96z" fill="#BECEFD" p-id="960"></path><path d="M179.2 542.4l137.6 137.6 81.6-81.6 81.6 81.6v81.6H96V624l83.2-81.6zM425.6 432c30.4 0 54.4 24 54.4 54.4s-24 54.4-54.4 54.4-54.4-24-54.4-54.4 24-54.4 54.4-54.4z" fill="#FFFFFF" p-id="961"></path><path d="M641.6 971.2l-321.6-128v-768h320z" fill="#98A6CC" p-id="962"></path><path d="M320 75.2h608c52.8 0 96 43.2 96 96v576c0 52.8-43.2 96-96 96H320v-768z" fill="#557EF1" p-id="963"></path><path d="M553.6 360l148.8 148.8 89.6-89.6 89.6 89.6v89.6H464V448l89.6-88zM820.8 240c33.6 0 59.2 27.2 59.2 59.2 0 33.6-27.2 59.2-59.2 59.2-33.6 0-59.2-27.2-59.2-59.2s25.6-59.2 59.2-59.2z" fill="#FFFFFF" p-id="964"></path></svg>